<svg width="63" height="24" viewBox="0 0 63 24" fill="none" xmlns="http://www.w3.org/2000/svg">
<g id="Group">
<path id="Vector" d="M37.8424 4.625H21.6689V9.66817H37.8424V4.625Z" fill="url(#paint0_linear_1129_46494)"/>
<path id="Vector_2" d="M6.78258 23.5802V4.73029H0V0.382568H18.503V4.73029H11.7561V23.5818H6.78258V23.5802Z" fill="#243757"/>
<path id="Vector_3" d="M40.4167 11.9992C40.4167 4.8697 45.8069 0 52.5895 0C57.8758 0 60.8326 2.7818 62.4667 5.66893L58.2243 7.75528C57.2501 5.87648 55.1637 4.3818 52.5895 4.3818C48.5546 4.3818 45.494 7.61588 45.494 11.9992C45.494 16.3826 48.5546 19.6167 52.5895 19.6167C55.1637 19.6167 57.2501 18.1561 58.2243 16.2432L62.4667 18.2955C60.797 21.1826 57.8758 24 52.5895 24C45.8069 24 40.4167 19.1303 40.4167 12.0008V11.9992Z" fill="#243757"/>
<g id="Group_2">
<path id="Vector_4" d="M21.6689 0.382568V4.62497H26.6083H38.0856V0.382568H21.6689Z" fill="#243757"/>
<path id="Vector_5" d="M21.6689 9.66809V23.5802H26.6083V13.912H37.8409V9.66809H26.6083H21.6689Z" fill="#243757"/>
</g>
</g>
<defs>
<linearGradient id="paint0_linear_1129_46494" x1="21.5371" y1="7.18375" x2="37.6768" y2="7.18375" gradientUnits="userSpaceOnUse">
<stop stop-color="#DEB624"/>
<stop offset="0.5" stop-color="#FACD0C" stop-opacity="0.6"/>
<stop offset="1" stop-color="#F9DA09" stop-opacity="0"/>
</linearGradient>
</defs>
</svg>
