<?xml version="1.0" encoding="UTF-8"?>
<svg id="Layer_2" data-name="Layer 2" xmlns="http://www.w3.org/2000/svg" xmlns:xlink="http://www.w3.org/1999/xlink" viewBox="0 0 1316.09 151.98">
  <defs>
    <style>
      .cls-1 {
        fill: url(#linear-gradient);
      }
    </style>
    <linearGradient id="linear-gradient" x1="3527.25" y1="-7036.91" x2="3616.6" y2="-7036.91" gradientTransform="translate(-3460.7 -10034.85) scale(1.15 -1.43)" gradientUnits="userSpaceOnUse">
      <stop offset="0" stop-color="#deb624"/>
      <stop offset=".5" stop-color="#facd0c" stop-opacity=".6"/>
      <stop offset="1" stop-color="#f9da09" stop-opacity="0"/>
    </linearGradient>
  </defs>
  <g id="Layer_1-2" data-name="Layer 1">
    <g>
      <g>
        <path d="m379.25,49.19c0,33.8-25.43,48.89-61.16,48.89h-18.56v51.24h-30.24V2.42h46.73c39.86,0,63.23,15.09,63.23,46.77m-30.71.09c0-16.59-12.14-23.44-32.76-23.44h-16.26v48.41h16.26c20.17,0,32.76-5.72,32.76-24.97"/>
        <polygon points="144.31 29.9 241.81 29.9 247.27 2.42 144.31 2.42 144.31 29.9"/>
        <rect x="144.31" y="121.84" width="97.49" height="27.48"/>
        <rect x="144.31" y="60.97" width="97.49" height="27.48"/>
        <polygon points="89.33 2.42 89.33 112.58 38.25 2.42 0 2.42 0 149.32 27.48 149.32 27.48 39.51 77.65 149.32 116.82 149.32 116.82 2.42 89.33 2.42"/>
      </g>
      <g>
        <g>
          <path d="m896.53,149.32V2.42h12.55v135.45h71.14v11.46h-83.69Z"/>
          <path d="m1007.53,149.32V2.42h12.55v146.9h-12.55Z"/>
          <path d="m1161.71,149.32l-92.5-126.86v126.86h-12.55V2.42h12.77l92.06,125.1V2.42h12.55v146.9h-12.33Z"/>
          <path d="m1300.03,149.32l-60.57-69.16-16.3,17.84v51.32h-12.55V2.42h12.55v80.39L1294.07,2.42h16.08l-62.55,70.04,68.49,76.87h-16.07Z"/>
        </g>
        <rect class="cls-1" x="582.57" y="29.29" width="102.42" height="31.94"/>
        <path d="m488.3,149.32V29.94h-42.95V2.41h117.17v27.53h-42.73v119.38h-31.49Z"/>
        <path d="m701.29,75.98c0-45.15,34.13-75.98,77.08-75.98,33.48,0,52.2,17.62,62.55,35.9l-26.87,13.21c-6.17-11.89-19.38-21.36-35.68-21.36-25.55,0-44.93,20.48-44.93,48.24s19.38,48.24,44.93,48.24c16.3,0,29.51-9.25,35.68-21.36l26.87,13c-10.57,18.28-29.07,36.12-62.55,36.12-42.95,0-77.08-30.85-77.08-75.99Z"/>
        <g>
          <polygon points="582.57 2.42 582.57 29.29 613.84 29.29 686.52 29.29 686.52 2.42 582.57 2.42"/>
          <polygon points="582.57 61.22 582.57 149.32 613.84 149.32 613.84 88.1 684.98 88.1 684.98 61.22 613.84 61.22 582.57 61.22"/>
        </g>
      </g>
    </g>
  </g>
</svg>