<?xml version="1.0" encoding="UTF-8"?>
<svg id="Layer_2" data-name="Layer 2" xmlns="http://www.w3.org/2000/svg" xmlns:xlink="http://www.w3.org/1999/xlink" viewBox="0 0 848.2 154.94">
  <defs>
    <style>
      .cls-1 {
        fill: url(#linear-gradient);
      }
    </style>
    <linearGradient id="linear-gradient" x1="980.32" y1="4.11" x2="1037.9" y2="4.11" gradientTransform="translate(-1192.95 36.84) scale(1.81 2.27)" gradientUnits="userSpaceOnUse">
      <stop offset="0" stop-color="#deb624"/>
      <stop offset=".5" stop-color="#facd0c" stop-opacity=".6"/>
      <stop offset="1" stop-color="#f9da09" stop-opacity="0"/>
    </linearGradient>
  </defs>
  <g id="Layer_1-2" data-name="Layer 1">
    <g>
      <g>
        <path d="m386.66,50.15c0,34.46-25.93,49.85-62.36,49.85h-18.92s0,52.24,0,52.24h-30.83s0-149.77,0-149.77h47.64c40.63,0,64.46,15.39,64.46,47.68m-31.3.09c0-16.91-12.38-23.9-33.4-23.9h-16.58s0,49.36,0,49.36h16.58c20.55,0,33.4-5.83,33.39-25.46"/>
        <polygon points="147.13 30.49 246.53 30.49 252.1 2.47 147.13 2.47 147.13 30.49"/>
        <rect x="147.13" y="124.22" width="99.4" height="28.02"/>
        <rect x="147.13" y="62.16" width="99.4" height="28.02"/>
        <polygon points="91.08 2.47 91.08 114.78 39 2.47 0 2.47 0 152.24 28.02 152.24 28.02 40.28 79.17 152.24 119.1 152.24 119.1 2.47 91.08 2.47"/>
      </g>
      <rect class="cls-1" x="584.8" y="29.86" width="104.42" height="32.56"/>
      <path d="m488.69,152.24V30.54h-43.79V2.47h119.46v28.07h-43.56v121.71h-32.11Z"/>
      <path d="m705.83,77.47c0-46.03,34.8-77.47,78.59-77.47,34.13,0,53.22,17.96,63.77,36.6l-27.39,13.47c-6.29-12.13-19.76-21.78-36.38-21.78-26.05,0-45.81,20.88-45.81,49.18s19.76,49.18,45.81,49.18c16.62,0,30.09-9.43,36.38-21.78l27.39,13.25c-10.78,18.64-29.64,36.83-63.77,36.83-43.79,0-78.59-31.44-78.59-77.47Z"/>
      <g>
        <polygon points="584.8 2.47 584.8 29.86 616.68 29.86 690.78 29.86 690.78 2.47 584.8 2.47"/>
        <polygon points="584.8 62.42 584.8 152.24 616.68 152.24 616.68 89.82 689.21 89.82 689.21 62.42 616.68 62.42 584.8 62.42"/>
      </g>
    </g>
  </g>
</svg>