<?xml version="1.0" encoding="UTF-8"?>
<svg id="Layer_2" data-name="Layer 2" xmlns="http://www.w3.org/2000/svg" xmlns:xlink="http://www.w3.org/1999/xlink" viewBox="0 0 1341.82 154.94">
  <defs>
    <style>
      .cls-1 {
        fill: url(#linear-gradient);
      }

      .cls-2 {
        fill: #fff;
      }
    </style>
    <linearGradient id="linear-gradient" x1="251.48" y1="273.3" x2="309.05" y2="273.3" gradientTransform="translate(137.92 -573.21) scale(1.81 2.27)" gradientUnits="userSpaceOnUse">
      <stop offset="0" stop-color="#deb624"/>
      <stop offset=".5" stop-color="#facd0c" stop-opacity=".6"/>
      <stop offset="1" stop-color="#f9da09" stop-opacity="0"/>
    </linearGradient>
  </defs>
  <g id="Layer_1-2" data-name="Layer 1">
    <g>
      <g>
        <path class="cls-2" d="m386.66,50.15c0,34.46-25.93,49.85-62.36,49.85h-18.92s0,52.24,0,52.24h-30.83s0-149.77,0-149.77h47.64c40.63,0,64.46,15.39,64.46,47.68m-31.3.09c0-16.91-12.38-23.9-33.4-23.9h-16.58s0,49.36,0,49.36h16.58c20.55,0,33.4-5.83,33.39-25.46"/>
        <polygon class="cls-2" points="147.13 30.49 246.53 30.49 252.1 2.47 147.13 2.47 147.13 30.49"/>
        <rect class="cls-2" x="147.13" y="124.22" width="99.4" height="28.02"/>
        <rect class="cls-2" x="147.13" y="62.16" width="99.4" height="28.02"/>
        <polygon class="cls-2" points="91.08 2.47 91.08 114.78 39 2.47 0 2.47 0 152.24 28.02 152.24 28.02 40.28 79.17 152.24 119.1 152.24 119.1 2.47 91.08 2.47"/>
      </g>
      <g>
        <g>
          <path class="cls-2" d="m914.05,152.24V2.47h12.8v138.1h72.53v11.68h-85.33Z"/>
          <path class="cls-2" d="m1027.22,152.24V2.47h12.8v149.77h-12.8Z"/>
          <path class="cls-2" d="m1184.41,152.24l-94.31-129.34v129.34h-12.8V2.47h13.02l93.86,127.54V2.47h12.8v149.77h-12.57Z"/>
          <path class="cls-2" d="m1325.43,152.24l-61.75-70.51-16.62,18.19v52.32h-12.8V2.47h12.8v81.96L1319.36,2.47h16.39l-63.77,71.41,69.83,78.37h-16.39Z"/>
        </g>
        <g>
          <rect class="cls-1" x="593.95" y="29.86" width="104.42" height="32.56"/>
          <path class="cls-2" d="m497.84,152.24V30.54h-43.79V2.47h119.46v28.07h-43.56v121.71h-32.11Z"/>
          <path class="cls-2" d="m714.99,77.47c0-46.03,34.8-77.47,78.59-77.47,34.13,0,53.22,17.96,63.77,36.6l-27.39,13.47c-6.29-12.13-19.76-21.78-36.38-21.78-26.05,0-45.81,20.88-45.81,49.18s19.76,49.18,45.81,49.18c16.62,0,30.09-9.43,36.38-21.78l27.39,13.25c-10.78,18.64-29.64,36.83-63.77,36.83-43.79,0-78.59-31.44-78.59-77.47Z"/>
          <g>
            <polygon class="cls-2" points="593.95 2.47 593.95 29.86 625.84 29.86 699.94 29.86 699.94 2.47 593.95 2.47"/>
            <polygon class="cls-2" points="593.95 62.42 593.95 152.24 625.84 152.24 625.84 89.82 698.36 89.82 698.36 62.42 625.84 62.42 593.95 62.42"/>
          </g>
        </g>
      </g>
    </g>
  </g>
</svg>