<?xml version="1.0" encoding="UTF-8"?>
<svg id="Layer_2" data-name="Layer 2" xmlns="http://www.w3.org/2000/svg" xmlns:xlink="http://www.w3.org/1999/xlink" viewBox="0 0 1445.59 154.37">
  <defs>
    <style>
      .cls-1 {
        fill: url(#linear-gradient);
      }
    </style>
    <linearGradient id="linear-gradient" x1="3527.25" y1="-8061.62" x2="3616.6" y2="-8061.62" gradientTransform="translate(-3460.7 -11502.71) scale(1.15 -1.43)" gradientUnits="userSpaceOnUse">
      <stop offset="0" stop-color="#deb624"/>
      <stop offset=".5" stop-color="#facd0c" stop-opacity=".6"/>
      <stop offset="1" stop-color="#f9da09" stop-opacity="0"/>
    </linearGradient>
  </defs>
  <g id="Layer_1-2" data-name="Layer 1">
    <g>
      <path d="m379.25,46.77c0,33.8-25.43,48.89-61.16,48.89h-18.56v51.24h-30.24V0h46.73c39.86,0,63.23,15.09,63.23,46.77m-30.71.09c0-16.59-12.14-23.44-32.76-23.44h-16.26v48.41h16.26c20.17,0,32.76-5.72,32.76-24.97"/>
      <polygon points="144.31 27.48 241.81 27.48 247.27 0 144.31 0 144.31 27.48"/>
      <rect x="144.31" y="119.42" width="97.49" height="27.48"/>
      <rect x="144.31" y="58.55" width="97.49" height="27.48"/>
      <polygon points="89.33 0 89.33 110.16 38.25 0 0 0 0 146.9 27.48 146.9 27.48 37.09 77.65 146.9 116.82 146.9 116.82 0 89.33 0"/>
      <path d="m891.01,151.73V4.83h93.16v11.46h-80.61v54.4h79.06v11.46h-79.06v69.6h-12.55Z"/>
      <path d="m1010.39,151.73V4.83h12.55v135.45h71.14v11.46h-83.69Z"/>
      <path d="m1179.1,2.4c42.95,0,71.36,33.03,71.36,75.98s-28.41,75.98-71.36,75.98-71.36-33.03-71.36-75.98,28.19-75.98,71.36-75.98Zm0,11.46c-35.68,0-58.14,27.09-58.14,64.53s22.46,64.53,58.14,64.53,58.14-27.53,58.14-64.53-22.9-64.53-58.14-64.53Z"/>
      <path d="m1389.65,151.73l-35.24-126.2-35.24,126.2h-14.09l-42.07-146.9h14.09l35.46,129.28,36.12-129.28h11.46l35.9,129.28,35.46-129.28h14.09l-41.84,146.9h-14.1Z"/>
      <rect class="cls-1" x="582.57" y="29.29" width="102.42" height="31.94"/>
      <path d="m488.3,149.32V29.95h-42.95V2.41h117.17v27.53h-42.73v119.38h-31.49Z"/>
      <path d="m701.29,75.99C701.29,30.84,735.42,0,778.37,0c33.48,0,52.2,17.62,62.55,35.9l-26.87,13.21c-6.17-11.9-19.38-21.36-35.68-21.36-25.55,0-44.93,20.48-44.93,48.24s19.38,48.24,44.93,48.24c16.3,0,29.51-9.25,35.68-21.36l26.87,13c-10.57,18.28-29.07,36.12-62.55,36.12-42.95,0-77.08-30.85-77.08-75.99Z"/>
      <polygon points="582.57 2.42 582.57 29.29 613.84 29.29 686.52 29.29 686.52 2.42 582.57 2.42"/>
      <polygon points="582.57 61.22 582.57 149.32 613.84 149.32 613.84 88.1 684.98 88.1 684.98 61.22 613.84 61.22 582.57 61.22"/>
    </g>
  </g>
</svg>