<?xml version="1.0" encoding="UTF-8"?>
<svg id="Layer_2" data-name="Layer 2" xmlns="http://www.w3.org/2000/svg" xmlns:xlink="http://www.w3.org/1999/xlink" viewBox="0 0 989.85 151.98">
  <defs>
    <style>
      .cls-1 {
        fill: url(#linear-gradient);
      }
    </style>
    <linearGradient id="linear-gradient" x1="2894.87" y1="-7529.81" x2="2984.23" y2="-7529.81" gradientTransform="translate(-3181.21 -10740.91) scale(1.15 -1.43)" gradientUnits="userSpaceOnUse">
      <stop offset="0" stop-color="#deb624"/>
      <stop offset=".5" stop-color="#facd0c" stop-opacity=".6"/>
      <stop offset="1" stop-color="#f9da09" stop-opacity="0"/>
    </linearGradient>
  </defs>
  <g id="Layer_1-2" data-name="Layer 1">
    <g>
      <path d="m444.08,75.98c0-45.15,32.82-75.98,74-75.98,23.79,0,41.4,10.35,53.96,25.99l-10.57,6.83c-9.25-12.77-25.33-21.36-43.39-21.36-34.14,0-60.79,26.21-60.79,64.53s26.65,64.53,60.79,64.53c18.06,0,34.13-8.59,43.39-21.36l10.57,6.61c-13,16.08-30.17,26.21-53.96,26.21-41.19,0-74-30.84-74-75.98Z"/>
      <path d="m663.45,0c42.95,0,71.36,33.03,71.36,75.98s-28.41,75.98-71.36,75.98-71.36-33.03-71.36-75.98S620.28,0,663.45,0Zm0,11.46c-35.68,0-58.14,27.09-58.14,64.53s22.46,64.53,58.14,64.53,58.14-27.53,58.14-64.53-22.9-64.53-58.14-64.53Z"/>
      <path d="m851.98,149.32l-41.19-60.78h-32.38v60.78h-12.55V2.42h54.84c25.33,0,44.71,16.08,44.71,42.95s-18.94,41.4-40.74,42.28l42.51,61.67h-15.19Zm-32.38-135.44h-41.19v63.21h41.19c19.38,0,32.59-13.21,32.59-31.71s-13.21-31.5-32.59-31.5Z"/>
      <path d="m896.69,149.32V2.42h93.16v11.46h-80.62v54.4h79.07v11.46h-79.07v58.14h80.62v11.46h-93.16Z"/>
      <rect class="cls-1" x="137.22" y="29.29" width="102.42" height="31.94"/>
      <path d="m42.95,149.32V29.95H0V2.41h117.17v27.53h-42.72v119.38h-31.49Z"/>
      <path d="m255.93,75.98C255.93,30.84,290.06,0,333.01,0c33.48,0,52.2,17.62,62.55,35.9l-26.86,13.21c-6.17-11.9-19.38-21.36-35.68-21.36-25.55,0-44.93,20.48-44.93,48.24s19.38,48.24,44.93,48.24c16.3,0,29.51-9.25,35.68-21.36l26.86,13c-10.57,18.28-29.07,36.12-62.55,36.12-42.94,0-77.08-30.85-77.08-75.99Z"/>
      <polygon points="137.22 2.42 137.22 29.29 168.49 29.29 241.17 29.29 241.17 2.42 137.22 2.42"/>
      <polygon points="137.22 61.22 137.22 149.32 168.49 149.32 168.49 88.1 239.63 88.1 239.63 61.22 168.49 61.22 137.22 61.22"/>
    </g>
  </g>
</svg>