<?xml version="1.0" encoding="UTF-8"?>
<svg id="Layer_2" data-name="Layer 2" xmlns="http://www.w3.org/2000/svg" xmlns:xlink="http://www.w3.org/1999/xlink" viewBox="0 0 1000.24 154.37">
  <defs>
    <style>
      .cls-1 {
        fill: url(#linear-gradient);
      }
    </style>
    <linearGradient id="linear-gradient" x1="2894.87" y1="-8061.62" x2="2984.23" y2="-8061.62" gradientTransform="translate(-3181.21 -11502.72) scale(1.15 -1.43)" gradientUnits="userSpaceOnUse">
      <stop offset="0" stop-color="#deb624"/>
      <stop offset=".5" stop-color="#facd0c" stop-opacity=".6"/>
      <stop offset="1" stop-color="#f9da09" stop-opacity="0"/>
    </linearGradient>
  </defs>
  <g id="Layer_1-2" data-name="Layer 1">
    <g>
      <path d="m445.66,151.72V4.83h93.16v11.46h-80.6v54.4h79.07v11.46h-79.07v69.6h-12.56Z"/>
      <path d="m565.04,151.72V4.83h12.55v135.45h71.14v11.46h-83.69Z"/>
      <path d="m733.75,2.4c42.95,0,71.36,33.03,71.36,75.98s-28.41,75.98-71.36,75.98-71.36-33.03-71.36-75.98S690.58,2.4,733.75,2.4Zm0,11.46c-35.68,0-58.14,27.09-58.14,64.53s22.46,64.53,58.14,64.53,58.14-27.53,58.14-64.53-22.91-64.53-58.14-64.53Z"/>
      <path d="m944.31,151.72l-35.24-126.2-35.24,126.2h-14.09L817.66,4.83h14.09l35.46,129.28L903.34,4.83h11.46l35.9,129.28L986.15,4.83h14.09l-41.84,146.9h-14.1Z"/>
      <rect class="cls-1" x="137.22" y="29.29" width="102.42" height="31.94"/>
      <path d="m42.95,149.32V29.94H0V2.41h117.17v27.53h-42.72v119.38h-31.49Z"/>
      <path d="m255.93,75.98C255.93,30.84,290.06,0,333.01,0c33.48,0,52.2,17.62,62.55,35.9l-26.86,13.21c-6.17-11.9-19.38-21.36-35.68-21.36-25.55,0-44.93,20.48-44.93,48.24s19.38,48.24,44.93,48.24c16.3,0,29.51-9.25,35.68-21.36l26.86,13c-10.57,18.28-29.07,36.12-62.55,36.12-42.94,0-77.08-30.85-77.08-75.99Z"/>
      <polygon points="137.22 2.42 137.22 29.29 168.49 29.29 241.17 29.29 241.17 2.42 137.22 2.42"/>
      <polygon points="137.22 61.22 137.22 149.32 168.49 149.32 168.49 88.1 239.63 88.1 239.63 61.22 168.49 61.22 137.22 61.22"/>
    </g>
  </g>
</svg>