<?xml version="1.0" encoding="UTF-8"?>
<svg id="Layer_2" data-name="Layer 2" xmlns="http://www.w3.org/2000/svg" xmlns:xlink="http://www.w3.org/1999/xlink" viewBox="0 0 1009.19 154.94">
  <defs>
    <style>
      .cls-1 {
        fill: url(#linear-gradient);
      }

      .cls-2 {
        fill: #fff;
      }
    </style>
    <linearGradient id="linear-gradient" x1="-872.89" y1="63.37" x2="-815.31" y2="63.37" gradientTransform="translate(1722.81 -97.47) scale(1.81 2.27)" gradientUnits="userSpaceOnUse">
      <stop offset="0" stop-color="#deb624"/>
      <stop offset=".5" stop-color="#facd0c" stop-opacity=".6"/>
      <stop offset="1" stop-color="#f9da09" stop-opacity="0"/>
    </linearGradient>
  </defs>
  <g id="Layer_1-2" data-name="Layer 1">
    <g>
      <g>
        <path class="cls-2" d="m452.75,77.47C452.75,31.44,486.21,0,528.2,0c24.25,0,42.21,10.55,55.01,26.5l-10.78,6.96c-9.43-13.02-25.82-21.78-44.24-21.78-34.81,0-61.98,26.72-61.98,65.79s27.17,65.79,61.98,65.79c18.41,0,34.8-8.76,44.24-21.78l10.78,6.74c-13.25,16.39-30.76,26.72-55.01,26.72-41.99,0-75.45-31.44-75.45-77.47Z"/>
        <path class="cls-2" d="m676.41,0c43.79,0,72.75,33.68,72.75,77.47s-28.97,77.47-72.75,77.47-72.75-33.68-72.75-77.47S632.39,0,676.41,0Zm0,11.68c-36.38,0-59.28,27.62-59.28,65.79s22.9,65.79,59.28,65.79,59.28-28.07,59.28-65.79-23.35-65.79-59.28-65.79Z"/>
        <path class="cls-2" d="m868.62,152.25l-41.99-61.97h-33.01v61.97h-12.8V2.47h55.91c25.82,0,45.58,16.39,45.58,43.79s-19.31,42.21-41.54,43.11l43.34,62.87h-15.49Zm-33.01-138.1h-41.99v64.45h41.99c19.76,0,33.23-13.47,33.23-32.33s-13.47-32.11-33.23-32.11Z"/>
        <path class="cls-2" d="m914.21,152.25V2.47h94.98v11.68h-82.19v55.46h80.61v11.68h-80.61v59.28h82.19v11.68h-94.98Z"/>
      </g>
      <g>
        <rect class="cls-1" x="139.89" y="29.86" width="104.42" height="32.56"/>
        <path class="cls-2" d="m43.79,152.24V30.54H0V2.47h119.46v28.07h-43.56v121.71h-32.11Z"/>
        <path class="cls-2" d="m260.93,77.47C260.93,31.44,295.73,0,339.52,0c34.13,0,53.22,17.96,63.77,36.6l-27.39,13.47c-6.29-12.13-19.76-21.78-36.38-21.78-26.05,0-45.81,20.88-45.81,49.18s19.76,49.18,45.81,49.18c16.62,0,30.09-9.43,36.38-21.78l27.39,13.25c-10.78,18.64-29.64,36.83-63.77,36.83-43.79,0-78.59-31.44-78.59-77.47Z"/>
        <g>
          <polygon class="cls-2" points="139.89 2.47 139.89 29.86 171.78 29.86 245.88 29.86 245.88 2.47 139.89 2.47"/>
          <polygon class="cls-2" points="139.89 62.42 139.89 152.24 171.78 152.24 171.78 89.82 244.31 89.82 244.31 62.42 171.78 62.42 139.89 62.42"/>
        </g>
      </g>
    </g>
  </g>
</svg>