<svg width="32" height="32" viewBox="0 0 32 32" fill="none" xmlns="http://www.w3.org/2000/svg">
<g id="NEPLogoFCWhite">
<path id="Vector" fill-rule="evenodd" clip-rule="evenodd" d="M9.66406 15.4858H16.7126C16.5462 14.1083 15.9986 12.8478 15.1776 11.8125L9.66406 15.4858Z" fill="#BB0099"/>
<path id="Vector_2" fill-rule="evenodd" clip-rule="evenodd" d="M9.12109 15.4795L14.9818 11.575C14.0759 10.5217 12.9183 9.77709 11.6587 9.37109L9.12109 15.4795Z" fill="#EE0000"/>
<path id="Vector_3" fill-rule="evenodd" clip-rule="evenodd" d="M8.66865 15.7759L11.3661 9.28306C10.0603 8.91854 8.67929 8.92134 7.375 9.29116L8.66865 15.7759Z" fill="#FF8500"/>
<path id="Vector_4" fill-rule="evenodd" clip-rule="evenodd" d="M8.45452 16.2717L7.07933 9.37891C5.79148 9.79859 4.6447 10.5661 3.76562 11.5966L8.4544 16.2717" fill="#FFCC00"/>
<path id="Vector_5" fill-rule="evenodd" clip-rule="evenodd" d="M8.55452 16.8054L3.57052 11.8359C2.73348 12.8984 2.20741 14.1721 2.05078 15.5156L8.55464 16.8054" fill="#66CC00"/>
<path id="Vector_6" fill-rule="evenodd" clip-rule="evenodd" d="M8.93462 17.1916L2.02157 15.8203C1.91776 17.1686 2.1901 18.5192 2.80827 19.7219L8.93462 17.1917" fill="#00B7D4"/>
<path id="Vector_7" fill-rule="evenodd" clip-rule="evenodd" d="M9.46509 17.3047L2.95312 19.9942C3.63544 21.2034 4.62514 22.159 5.78112 22.8021L9.46509 17.3047Z" fill="#0090FF"/>
<path id="Vector_8" fill-rule="evenodd" clip-rule="evenodd" d="M9.97075 17.1017L6.05469 22.9451C7.26448 23.5567 8.61957 23.8225 9.97075 23.7134V17.1016" fill="#0060CC"/>
<path id="Vector_9" fill-rule="evenodd" clip-rule="evenodd" d="M28.3467 18.7525C28.3467 17.9209 27.7379 17.5767 26.704 17.5767H25.8886V20.0046H26.704C27.715 20.0046 28.3467 19.7179 28.3467 18.7525ZM29.8864 18.7481C29.8864 20.4433 28.611 21.2003 26.819 21.2003H25.8884V23.7697H24.3723V16.4025H26.7157C28.7144 16.4025 29.8864 17.1594 29.8864 18.7481ZM18.1043 22.3913H22.9936V23.7697H18.1042L18.1043 22.3913ZM18.1043 20.7168V19.3384H22.9938V20.7168H18.1043ZM18.1043 17.781V16.4025H23.2679L22.9936 17.781H18.1043ZM15.3472 16.4025H16.7257V23.7697H14.7614L12.2458 18.2623V23.7695H10.8672V16.4023H12.7856L15.3473 21.9269L15.3472 16.4025Z" fill="black"/>
</g>
</svg>
