<?xml version="1.0" encoding="utf-8"?>
<!-- Generator: Adobe Illustrator 21.1.0, SVG Export Plug-In . SVG Version: 6.00 Build 0)  -->
<svg version="1.1" id="Layer_1" xmlns="http://www.w3.org/2000/svg" xmlns:xlink="http://www.w3.org/1999/xlink" x="0px" y="0px"
	 viewBox="0 0 530 512" style="enable-background:new 0 0 530 512;" xml:space="preserve">
<style type="text/css">
	.st0{fill:#E5E2DE;}
	.st1{fill:#E3E1DE;}
	.st2{opacity:0.2;}
	.st3{fill:#F0EFED;}
</style>
<path class="st0" d="M512,368c0,23.6-52.9,85.3-256,85.3S0,391.5,0,368s114.6-21.3,256-21.3C397.4,346.6,512,344.4,512,368z"/>
<path class="st1" d="M256,58.7c-100.1,0-181.3,14.3-181.3,32l10.7,288c0,0,42.7,21.3,170.7,21.3s170.6-21.3,170.6-21.3l10.7-288
	C437.3,73,356.1,58.7,256,58.7z"/>
<g class="st2">
	<path d="M256,58.7c-3.6,0-7.1,0-10.7,0.1c95.2,1,170.7,14.9,170.7,31.9l-10.7,294.9l21.3-6.9l10.7-288
		C437.3,73,356.1,58.7,256,58.7z"/>
</g>
<path class="st3" d="M437.3,90.7c0,17.7-81.2,32-181.3,32s-181.3-14.3-181.3-32s81.2-32,181.3-32C356.1,58.7,437.3,73,437.3,90.7z"
	/>
</svg>
